User Type,Username,Date,Text
,puppyup,2010-11-17T07:12Z,"Good rip! Thanks!

   Video #0
      ID : 0
      Format : MPEG-4 Visual
      Format profile : AdvancedSimple@L5
      Format settings, BVOP : Yes
      Format settings, QPel : No
      Format settings, GMC : No warppoints
      Format settings, Matrix : Custom
      Codec ID : XVID
      Codec ID/Hint : XviD
      Duration : 1h 49mn
      Bit rate : 767 Kbps
      Width : 608 pixels
      Height : 272 pixels
      Display aspect ratio : 2.25:1
      Frame rate : 25.000 fps
      Resolution : 24 bits
      Colorimetry : 4:2:0
      Scan type : Progressive
      Bits/(Pixel*Frame) : 0.186
      Stream size : 599 MiB (86%)
   Audio #1
      ID : 1
      Format : MPEG Audio
      Format version : Version 1
      Format profile : Layer 3
      Codec ID : 55
      Codec ID/Hint : MP3
      Duration : 1h 49mn
      Bit rate mode : Variable
      Bit rate : 117 Kbps
      Nominal bit rate : 128 Kbps
      Channel(s) : 2 channels
      Sampling rate : 48.0 KHz
      Resolution : 16 bits
      Stream size : 91.4 MiB (13%)"
,puppyup,2010-11-17T07:50Z,"subtitles for the non-english parts:
http://www.opensubtitles.org/en/subtitles/3959862/the-emerald-forest-en"
,marceloaft,2011-05-16T13:29Z,Thanks
,frogshare,2011-06-08T14:34Z,"I guess the best copy is this torrent:
http://thepiratebay.org/torrent/6313303/The_Emerald_Forest_(1985)-%5BSub.Eng-Swe%5D-DvdRip-H.264"
